<?xml version="1.0" standalone="no"?>
<!DOCTYPE svg PUBLIC "-//W3C//DTD SVG 20010904//EN"
 "http://www.w3.org/TR/2001/REC-SVG-20010904/DTD/svg10.dtd">
<svg version="1.0" xmlns="http://www.w3.org/2000/svg"
 width="640.000000pt" height="480.000000pt" viewBox="0 0 640.000000 480.000000"
 preserveAspectRatio="xMidYMid meet">
<metadata>
Created by potrace 1.11, written by Peter Selinger 2001-2013
</metadata>
<g transform="translate(0.000000,480.000000) scale(0.100000,-0.100000)"
fill="#000000" stroke="none">
<path d="M2450 2652 c-68 -141 -128 -265 -133 -274 -5 -13 -3 -18 6 -18 8 0
31 38 53 85 l39 84 171 1 171 0 39 -85 c22 -47 45 -85 52 -85 17 0 29 -28
-123 284 -71 146 -134 266 -140 265 -5 0 -66 -116 -135 -257z m287 -98 c-2 -3
-73 -3 -156 -2 l-152 3 78 158 77 158 79 -157 c43 -86 76 -158 74 -160z"/>
<path d="M2870 2895 c0 -12 18 -15 105 -15 l105 0 0 -260 c0 -224 2 -260 15
-260 13 0 15 36 15 260 l0 260 105 0 c87 0 105 3 105 15 0 13 -32 15 -225 15
-193 0 -225 -2 -225 -15z"/>
<path d="M270 2630 l0 -270 180 0 180 0 0 70 0 70 -100 0 -100 0 0 200 0 200
-80 0 -80 0 0 -270z"/>
<path d="M854 2884 c-57 -21 -120 -77 -148 -133 -57 -111 -40 -218 47 -306
180 -179 487 -62 487 185 0 110 -50 189 -154 242 -53 28 -174 34 -232 12z
m183 -157 c85 -56 58 -188 -44 -216 -84 -23 -163 34 -163 119 0 107 113 159
207 97z"/>
<path d="M1260 2895 c0 -3 58 -125 129 -270 l129 -265 39 0 38 1 132 267 131
267 1 -267 1 -268 180 0 180 0 0 60 0 60 -100 0 -100 0 0 45 0 45 90 0 90 0 0
65 0 65 -90 0 -90 0 0 40 0 40 100 0 100 0 0 60 0 60 -258 0 -258 0 -74 -150
-75 -151 -72 151 -72 150 -75 0 c-42 0 -76 -2 -76 -5z"/>
<path d="M4427 2084 c-4 -4 -7 -128 -7 -276 0 -232 2 -268 15 -268 13 0 15 21
15 130 l0 130 155 0 c131 0 155 2 155 15 0 13 -24 15 -155 15 l-155 0 0 115 0
115 171 0 c132 0 170 3 167 13 -4 9 -50 13 -179 15 -97 1 -178 -1 -182 -4z"/>
<path d="M4860 1815 l0 -275 180 0 c113 0 180 4 180 10 0 6 -63 10 -170 10
l-170 0 0 120 0 119 157 3 c114 2 157 6 161 16 3 9 -33 12 -157 12 l-161 0 0
115 0 115 170 0 c144 0 170 2 170 15 0 13 -27 15 -180 15 l-180 0 0 -275z"/>
<path d="M5290 1815 l0 -275 180 0 c113 0 180 4 180 10 0 6 -62 10 -165 10
l-165 0 0 120 0 120 155 0 c131 0 155 2 155 15 0 13 -24 15 -155 15 l-155 0 0
115 0 115 165 0 c140 0 165 2 165 15 0 13 -27 15 -180 15 l-180 0 0 -275z"/>
<path d="M5730 1815 l0 -275 180 0 c113 0 180 4 180 10 0 6 -63 10 -170 10
l-170 0 0 265 c0 170 -4 265 -10 265 -6 0 -10 -98 -10 -275z"/>
<path d="M2280 1810 l0 -270 80 0 80 0 0 105 0 105 90 0 90 0 0 65 0 65 -90 0
-90 0 0 40 0 40 105 0 105 0 0 60 0 60 -185 0 -185 0 0 -270z"/>
<path d="M2700 1810 l0 -270 80 0 80 0 0 270 0 270 -80 0 -80 0 0 -270z"/>
<path d="M2910 1810 l0 -270 80 0 80 0 0 70 0 70 44 0 c44 0 44 0 87 -70 l44
-70 88 0 c48 0 86 3 84 8 -3 4 -30 48 -60 99 -50 82 -54 93 -40 105 24 20 53
89 53 129 0 19 -12 59 -26 87 -20 41 -37 59 -78 82 -50 29 -53 30 -203 30
l-153 0 0 -270z m289 135 c48 -24 55 -72 16 -110 -20 -21 -34 -25 -85 -25
l-60 0 0 75 0 75 50 0 c28 0 64 -7 79 -15z"/>
<path d="M3535 2066 c-68 -29 -114 -120 -95 -187 22 -79 62 -113 154 -134 44
-10 51 -15 54 -38 3 -22 -2 -28 -24 -33 -22 -6 -31 -3 -42 14 -12 19 -24 22
-83 22 l-69 0 6 -27 c23 -94 86 -143 182 -143 139 1 221 156 138 264 -32 43
-55 56 -120 71 -56 13 -77 35 -57 59 19 23 62 21 68 -4 5 -18 14 -20 74 -20
65 0 69 1 69 23 0 38 -43 100 -85 124 -46 26 -122 30 -170 9z"/>
<path d="M3830 2010 l0 -70 75 0 75 0 0 -200 0 -200 75 0 75 0 0 200 0 200 80
0 80 0 0 70 0 70 -230 0 -230 0 0 -70z"/>
</g>
</svg>
